<svg width="201" height="240" viewBox="0 0 201 240" fill="none" xmlns="http://www.w3.org/2000/svg">
<g opacity="0.3">
<path opacity="0.3" d="M139.81 49.25C134.343 49.2447 129.101 47.0704 125.235 43.2046C121.37 39.3387 119.195 34.097 119.19 28.6299V1.85854e-06H27.0602C23.5255 -0.00131167 20.0251 0.693646 16.759 2.04541C13.493 3.39718 10.5253 5.37922 8.02539 7.87818C5.52551 10.3771 3.54243 13.3441 2.18945 16.6096C0.836474 19.8751 0.140136 23.3752 0.140137 26.9099V189.13C0.140136 192.665 0.836474 196.165 2.18945 199.43C3.54243 202.696 5.52551 205.663 8.02539 208.162C10.5253 210.661 13.493 212.643 16.759 213.994C20.0251 215.346 23.5255 216.041 27.0602 216.04H137.66C144.797 216.04 151.642 213.205 156.688 208.158C161.735 203.112 164.57 196.267 164.57 189.13V49.25H139.81Z" fill="#5B5B5B"/>
</g>
<path d="M164.57 49.25H139.81C134.343 49.2447 129.101 47.0704 125.235 43.2046C121.37 39.3387 119.195 34.097 119.19 28.6299V0L164.57 49.25Z" fill="#5B5B5B"/>
<path d="M130.74 83.7302H27.5001C26.5082 83.7302 25.557 83.3362 24.8556 82.6348C24.1542 81.9334 23.7601 80.9821 23.7601 79.9902C23.7588 79.4982 23.8546 79.0108 24.042 78.5559C24.2294 78.101 24.5046 77.6875 24.8521 77.3391C25.1995 76.9908 25.6121 76.7145 26.0665 76.5259C26.521 76.3373 27.0081 76.2402 27.5001 76.2402H130.74C131.735 76.2402 132.688 76.6354 133.392 77.3386C134.095 78.0419 134.49 78.9957 134.49 79.9902C134.487 80.9831 134.091 81.9344 133.388 82.6355C132.685 83.3366 131.733 83.7302 130.74 83.7302Z" fill="#5B5B5B"/>
<path d="M130.74 106.1H27.5001C26.5082 106.1 25.557 105.706 24.8556 105.005C24.1542 104.303 23.7601 103.352 23.7601 102.36C23.7588 101.868 23.8546 101.381 24.042 100.926C24.2294 100.471 24.5046 100.058 24.8521 99.7092C25.1995 99.3609 25.6121 99.0846 26.0665 98.896C26.521 98.7074 27.0081 98.6103 27.5001 98.6104H130.74C131.735 98.6104 132.688 99.0052 133.392 99.7085C134.095 100.412 134.49 101.366 134.49 102.36C134.487 103.353 134.091 104.304 133.388 105.005C132.685 105.706 131.733 106.1 130.74 106.1Z" fill="#5B5B5B"/>
<path d="M130.74 128.47H27.5001C27.0081 128.47 26.521 128.373 26.0665 128.184C25.6121 127.996 25.1995 127.719 24.8521 127.371C24.5046 127.023 24.2294 126.609 24.042 126.154C23.8546 125.699 23.7588 125.212 23.7601 124.72C23.7601 123.728 24.1542 122.777 24.8556 122.075C25.557 121.374 26.5082 120.98 27.5001 120.98H130.74C131.733 120.98 132.685 121.374 133.388 122.075C134.091 122.776 134.487 123.727 134.49 124.72C134.49 125.715 134.095 126.668 133.392 127.372C132.688 128.075 131.735 128.47 130.74 128.47Z" fill="#5B5B5B"/>
<path d="M90.0001 150.84H27.5001C27.0081 150.84 26.521 150.743 26.0665 150.554C25.6121 150.366 25.1995 150.089 24.8521 149.741C24.5046 149.393 24.2294 148.979 24.042 148.524C23.8546 148.07 23.7588 147.582 23.7601 147.09C23.7601 146.098 24.1542 145.147 24.8556 144.445C25.557 143.744 26.5082 143.35 27.5001 143.35H90.0001C90.9921 143.35 91.9433 143.744 92.6447 144.445C93.3461 145.147 93.7401 146.098 93.7401 147.09C93.7414 147.582 93.6456 148.07 93.4583 148.524C93.2709 148.979 92.9956 149.393 92.6482 149.741C92.3008 150.089 91.8881 150.366 91.4337 150.554C90.9793 150.743 90.4921 150.84 90.0001 150.84Z" fill="#5B5B5B"/>
<path d="M184.09 170.61H59.0501C50.1804 170.61 42.9901 177.8 42.9901 186.67V223.95C42.9901 232.82 50.1804 240.01 59.0501 240.01H184.09C192.96 240.01 200.15 232.82 200.15 223.95V186.67C200.15 177.8 192.96 170.61 184.09 170.61Z" fill="#5B5B5B"/>
<path d="M133.47 215.08H143.21V220.65H126.21V190.58H133.49L133.47 215.08Z" fill="white"/>
<path d="M157.48 196.36V202.66H167.65V208.14H157.48V214.82H168.92V220.65H150.21V190.58H168.92V196.36H157.48Z" fill="white"/>
<path d="M79.5299 213.38V220.65H72V213.38H79.5299Z" fill="white"/>
<path d="M103.7 190.57V196.36H91.3599V203H100.89V208.53H91.3599V220.69H84.0898V190.62L103.7 190.57Z" fill="white"/>
<path d="M117.91 190.58V220.65H110.64V190.58H117.91Z" fill="white"/>
</svg>
