<svg width="28" height="53" viewBox="0 0 28 53" fill="none" xmlns="http://www.w3.org/2000/svg">
<path d="M0 20.6919L20.1415 40.7233H0V20.6919Z" fill="#F99E39"/>
<path d="M24.8742 38.302L22.4528 40.7233H27.5157L24.8742 38.302Z" fill="#F99E39"/>
<path d="M0 41.824H20.1415L10.2358 51.7296L0 41.824Z" fill="#F99E39"/>
<path d="M20.6918 52.5001V42.2642L10.7862 52.5001H20.6918Z" fill="#F99E39"/>
<path d="M21.7925 52.1699V42.2642L26.7453 47.2171L21.7925 52.1699Z" fill="#F99E39"/>
<path d="M27.5157 41.824H22.4528L27.5157 46.6667V41.824Z" fill="#F99E39"/>
<mask id="mask0_1072_19425" style="mask-type:alpha" maskUnits="userSpaceOnUse" x="0" y="0" width="21" height="40">
<path d="M0.660156 19.4811L20.4715 0V39.7327L0.660156 19.4811Z" fill="#D9D9D9"/>
</mask>
<g mask="url(#mask0_1072_19425)">
<path d="M1.10059 19.3711L20.5817 0" stroke="#F99E39"/>
<path d="M1.10059 21.4624L20.5817 2.09131" stroke="#F99E39"/>
<path d="M1.10059 23.6635L20.5817 4.29248" stroke="#F99E39"/>
<path d="M1.10059 25.8647L20.5817 6.49365" stroke="#F99E39"/>
<path d="M1.10059 27.8459L20.5817 8.47485" stroke="#F99E39"/>
<path d="M1.10059 30.0471L20.5817 10.676" stroke="#F99E39"/>
<path d="M1.10059 32.2485L20.5817 12.8774" stroke="#F99E39"/>
<path d="M1.10059 34.4497L20.5817 15.0786" stroke="#F99E39"/>
<path d="M1.10059 36.4309L20.5817 17.0598" stroke="#F99E39"/>
<path d="M1.10059 38.6321L20.5817 19.261" stroke="#F99E39"/>
<path d="M1.10059 40.8332L20.5817 21.4622" stroke="#F99E39"/>
<path d="M1.10059 43.0346L20.5817 23.6636" stroke="#F99E39"/>
<path d="M1.10059 45.0156L20.5817 25.6445" stroke="#F99E39"/>
<path d="M1.10059 47.217L20.5817 27.8459" stroke="#F99E39"/>
<path d="M1.10059 49.4182L20.5817 30.0471" stroke="#F99E39"/>
<path d="M1.10059 51.6196L20.5817 32.2485" stroke="#F99E39"/>
<path d="M1.10059 53.6006L20.5817 34.2295" stroke="#F99E39"/>
<path d="M1.10059 55.802L20.5817 36.4309" stroke="#F99E39"/>
<path d="M1.10059 58.0031L20.5817 38.6321" stroke="#F99E39"/>
</g>
</svg>
