<svg version="1.2" xmlns="http://www.w3.org/2000/svg" viewBox="0 0 992 1057" width="992" height="1057">
	<style>
		tspan { white-space:pre } 
		.s0 { fill: #ffffff } 
		.s1 { fill: #4f3666 } 
		.s2 { fill: #9784bb } 
		.s3 { fill: #cabcdc } 
		.s4 { fill: #060606 } 
		.s5 { fill: #bbbaba } 
		.s6 { fill: #b57b56 } 
	</style>
	<path class="s0" d=""/>
	<path class="s1" d="m428.08 85.29c18.04-1.47 37.35 1.93 53.97 9 27.45 11.68 52.14 32.57 73.12 53.37 42.13 41.76 60.65 92.49 58.85 151.44-0.67 21.95-4 43.93-5.9 65.81-1.62 18.69-4.26 39.53 2.14 57.55 8.15 22.99 44.45 61.28 60.31 82.44 16.69 22.28 32.63 46.61 44.16 71.99 3.23 7.11 5.58 14.55 8.5 21.79 3.34 8.29 8.31 11.95 16.32 15.33 8.46 3.56 17.34 5.27 26.5 5.51 45.13 1.18 75.42-41.55 94.51-77.33q5.52-10.32 10.39-20.96c5.44-12.05 14.54-38.14 32.72-29.57 20.07 9.45 23.12 46.1 24.5 65.71 4.02 56.88-8.47 116.53-32.55 168.05-13.31 28.47-31.77 54.51-53.73 76.9-29.71 31.64-58.03 50.77-97.67 68.78-20.32 9.24-38.32 14.54-59.13 21.73 0.17 23.73 12.66 47.28-2.2 70.86-7.83 12.42-22.52 17.1-36.06 20.24-26.06 6.03-124.91 12.32-145.25-0.95-3.39-2.21-5.87-5.51-6.58-9.53-1.57-8.96 4.34-18.14 9.34-25.01 8.74-11.46 16.16-16.43 25.42-26.2-0.96-1.58-2-2.72-3.19-4.13-10.54-0.43-21.88-0.05-32.57-0.33q-23.5-0.74-46.83-3.74c-0.28 14.17-2.37 35.72-14.24 45.51-20.63 17.02-77.26 13.52-103.57 14.29-15-0.71-52.29 0.13-62.61-12.18-13.31-15.87 22.61-45.66 33.18-54.98-4.37-4.25-9.02-8.07-13.48-12.57-19.1-19.21-31.82-45.4-35.75-72.16-1.07-7.26-1.03-15.27-1.03-22.59-8.54-0.37-18.35-4.69-22.03-12.47-4.71-9.94-7.89-23.77-10.87-34.35l-16.36-57.62c-40.26-3.26-54.38-55.83-28.46-83.45 1.76-1.87 3.47-4.07 5.07-6.1-10.47-42.45-27.5-64.38 29.94-75.2 3.78-0.71 8.64-2.12 12.5-3.05 1.26-15.59 8.82-18.69 22.77-19.9-0.05-11.26 6.12-19.97 17.94-20.94 8.41-0.7 13.61 3.68 19.7 8.65 8.18-8.95 6.27-6.6 15.81-13.62 1.63-6.86 2.06-14.77 2.54-21.84-39.93-0.63-97.93-6.68-132.48-28.75-24.28-15.49-35.86-38.49-41.56-66.11q-2.67-1.65-5.28-3.38c-19.52-13.1-17.79-44.55-18.39-65.25-0.85-36.59 7.1-66.39 27.89-96.41 34.03-49.14 78.06-51.48 131.45-61.35 31.05-45.22 64.48-61.03 116.47-37.37 16.59-8.03 33.14-14.16 51.76-15.56z"/>
	<path class="s2" d="m360.48 110.88c-5.06 3.25-14.73 8.41-15.85 14.21-1.31 7.68 5 10.33 11.2 7.12 4.14-2.15 8.39-5.08 12.13-7.72 9.73-6.87 19.78-10.99 30.47-15.61 44.52-19.21 87.03-1.37 121.4 28.14 14.37 11.94 25.54 21.31 37.87 35.88 9.91 11.66 18.11 24.66 24.38 38.62 18.58 40.55 16.71 72.36 13.57 116.18-2.1 29.39-10.07 69.45-1.92 97.35 4.97 17.04 22.67 37.86 33.86 51.67q11.45 14.14 22.71 28.43c21.68 27.71 42.09 57.01 54.58 90.17 7.68 20.4 12.19 42.2 13.69 63.97 0.37 5.38 1 12.94 7.91 13.48 5.97 0.39 6.96-7.73 6.7-12.05-0.56-11.34-1.85-22.61-3.23-33.86 24.65 9.7 47.62 12.74 72.54 1.55 40.59-18.22 70.65-69.99 86.79-109.55 1.69-4.15 4.33-12.55 9.06-12.49 3.65 1.84 6.46 9.28 7.53 13.1 12.27 43.77 7.46 92.89-1.64 136.82-1.37 6.6-9.25 28.01-12.37 34.22-21 65.85-74.93 126.06-136.33 157.36-8.17 4.17-55.37 26.05-62.16 23.72-0.51-2.46 8.66-19.75 10.61-23.39 5.74-10.73 9.31-20.54 12.82-32.21q1.37-3.55 2.5-7.19c1.21-3.77 7.69-23.76-6.99-18.81-3.54 1.19-6.25 13.81-7.86 18.45q-5.98 17.6-14.06 34.35-3.7 7.8-7.92 15.35c-5.09 8.98-11.33 17.58-12.47 28.13-2.11 19.57 7.42 38.65 3.5 59.04-1.26 6.56-4.28 12.18-9.93 15.99-15.09 10.16-72.7 13.08-91.94 13.37-4.23 0.06-10.6 0.78-14.62-0.41-1.26-0.37-1.33-0.59-1.85-1.69 0.57-8.67 15.7-19.79 12.37-26.07-7.12-5.42-18.61 9.76-21.03 14.85-6.31 13.26-5.88 13.89-21.18 12.05-3.88-0.47-9.78-0.68-12.97-3.67-2.3-5.95 8.81-17.77 12.52-21.98 7.55-8.53 20.94-15.55 25.48-26.07 0.56-1.28-1.69-4.96-2.79-5.65-14.18-9.43-24.65-16.71-36.56-29.08-44.53-46.22-45.89-110.21-10.08-161.55 7.68-12.09 17.87-21.84 27.64-32.12 4.56-4.79 1.39-11.05-3.82-10.14-9.45 1.64-20.05 14.04-26.16 20.78-1.44-2.51-3.09-5.22-4.37-7.79-8.22-16.42-17.01-32.17-26.31-48.01-3.7 0.03-6.14 0.14-9.79-0.49 8.34 0.08 14.73 0.13 22.87-2.12 23.59-6.54 39.84-23.95 51.48-44.76 2.69-5.62 9.74-15.44 8.06-21.67-1.13-4.18-6.37-5.52-9.59-1.62-3.4 4.12-4.77 8.51-7.4 12.94-7.71 13.04-17.11 25.99-30.27 33.94-16.16 10.26-32.84 9.57-51.09 6.04-9.18-1.77-16.49-5.51-26.22-3.05-10.09 2.54-13.61 9.34-22.03 14.05-4.87 2.72-13.77 1.83-19.06 0.23-1.18-0.36-1.99-1.36-2.51-2.52-0.02-6.97 13.09-17.95 16.32-24.91 4.39-9.4-4.83-12.65-11.15-6.37-3.23 3.21-6.49 11.32-12.03 8.53-2.81-3.93-0.88-9.6 1.11-13.41 9.55-18.3 30.2-21.82 48.69-17.62 14.51 3.29 29.75 9.83 42.57-1.3 7.89-6.86 12.12-17.83 16.49-27.07 2.4-5.69 5.44-11.53 6.09-17.74 0.32-3.07-2.87-6.6-5.93-6.23-4.63 0.55-7.28 6.57-8.85 10.23-4.33 10.1-8.37 20.51-16.15 28.51l-0.48 0.49c-8.79 7.33-24.74-0.95-35.33-1.93-8.27-0.76-13.61-0.62-21.85-0.42-4.94-19.87-11.75-44.1-18.02-63.12-7.81-20.14-32.53-16.84-47.79-9.96-24.87 11.2-14-23.05-12.82-37.2 36.16-1.05 82.48-5 116.76-17.57 18.46-7.7 39.96-20.7 50.09-38.38 2.99-5.37-2.21-11.88-7.82-8.49-3.57 2.16-6.59 7.17-9.61 10.22-18.49 18.7-42.72 25.45-67.52 30.59-57.14 11.44-116 11.25-173.06-0.57-25.53-5.46-49.29-13.41-65.62-35 10.09-4.69 14.57-10.49 17.78-21.1 5.29 0.78 10.44 1.55 15.77 2.12 3.41 9.63 7.55 23.08 17.51 27.8 15.77 7.47 26.55-12.84 28.95-25.18 5.62-0.01 11.77-0.15 17.34-0.02 5.43 11.49 14.71 33.02 32.99 24.69 9.1-4.15 12.58-19.42 15.79-28.2 7.1-3.22 11.42-3.5 19.11-4.77 5.08 10.5 16.77 27.1 31.44 19.7 11.04-5.57 11.38-23.3 11.58-34.3 18.57-12.5 25.39-16.8 39.64-34.66 2.79 2.43 7.09 6.11 11.03 5.87 1.35-0.06 2.61-0.67 3.5-1.68 3.64-4.11-0.5-9.09-4.05-11.48-2.27-1.53-4.93-3.81-6.93-5.78-2.62-2.59-6.69-13.23-10.89-12.33-7.57 1.63-3.56 9.92-1.62 14.41-7.29 9.79-27.51 26.11-38.62 31.91-15.58 8.13-41.8 15.71-59.95 17.64-48.06 5.12-101.19 4.35-148.13-7.94-5.63-1.72-16.83-4.41-21.12-8.36-12.79-11.77-10.94-39.74-11.26-55.74-0.71-34.71 8.7-63.15 29.74-90.78 29.23-38.4 73.86-39.58 116.85-48.72 6.57-1.38 29.27-8.04 29.32-16.91-2.23-3.1-6.79-1.54-10.04-0.88 8.63-12.71 25.21-25.51 40.58-28.14 13.38-2.29 25-0.55 37.73 3.34z"/>
	<path class="s3" d="m429.98 442c2.01 9.1 1.38 19.11 3.85 28.57 8.97 34.34 18.44 65.49 15.2 101.63-8.79 7.33-24.74-0.95-35.33-1.93-8.27-0.76-13.61-0.62-21.85-0.42-4.94-19.87-11.75-44.1-18.02-63.12-7.81-20.14-32.53-16.84-47.79-9.96-24.87 11.2-14-23.05-12.82-37.2 36.16-1.05 82.48-5 116.76-17.57z"/>
	<path class="s3" d="m716.8 815.99c4.94-1.23 10.16-1.96 15.12-3.24 64.78-16.75 122.39-63.73 153.56-122.76 3.3-6.25 6.56-12.87 10.25-18.86-1.07 6.23-3.84 13.43-3.87 19.38-21 65.85-74.93 126.06-136.33 157.36-8.17 4.17-55.37 26.05-62.16 23.72-0.51-2.46 8.66-19.75 10.61-23.39 5.74-10.73 9.31-20.54 12.82-32.21z"/>
	<path class="s1" d="m423.84 182.62c29.69-1.39 33.25 45.51 4.77 52.56-32.57 0.99-34.16-46.53-4.77-52.56z"/>
	<path class="s1" d="m216.97 233.64c5.19-0.36 10.33 1.09 12.26 6.18 3.39 9-13.45 9.25-18.03 11.47-3.09 1.49-5.53 5.13-7.25 7.59-1.63 2.74-2.31 4.63-5.73 4.56-5.2-2.97-1.94-12.84 0.34-16.77 4.05-7 10.75-11.09 18.41-13.03z"/>
	<path class="s1" d="m140.27 225.82c12.91-0.45 17.05 18.47 9.61 26.35-1.08 0.05-3.83 0.11-4.32-1.18-2.38-6.37-7.5-13.13-8.89-19.6-0.41-1.88 2.38-4.49 3.6-5.57z"/>
	<path class="s0" d="m343.51 527.57l1.03 0.49c1.57 2.98 3.91 12.99 4.98 16.74 3.83 13.42 7.16 27.11 11.14 40.48-5.42 7.75-12.46 20.06-12.26 29.84 0.17 8.19 3.3 11.95 8.67 17.16-1.67 18.05 6.22 23.19 22.89 25.51q4.81 19.11 10.2 38.07c1.34 4.8 6.74 22.39 6.64 26.61-3.69 2.59-33.27 9.93-39 11.53-32.45 9.09-65.87 16.84-98.08 26.69-1.67 0.42-3.17 1.19-4.82 0.59-1.49-3.01-6.45-23.1-7.84-28.04l-11.73-41.2c-3.44-12.08-7.52-20.76-5.29-32.99 1.05-5.76-3.58-12.43-7.47-16.79 0.44-4.91 1.28-11.45 0.11-16.2-1.41-5.73-6-7.69-7.94-13.7-1.8-5.55-3.12-10.95-4.67-16.56l-8.2-29.26q11.48-3.14 22.86-6.57c0.36 0.96 0.74 1.9 1.25 2.79 1.08 1.86 2.41 3.29 4.57 3.8 4.23 1.01 84.87-21.68 88.7-24.61 2.93-2.25 3.14-5.89 3.48-9.27q10.34-2.76 20.78-5.11z"/>
	<path fill-rule="evenodd" class="s4" d="m272.11 629.84q-10.28 2.85-20.61 5.51c-2.75 0.72-8.82 1.82-10.87 3.44-0.57 1.54-0.17 2.11 1.29 3.04 9.17-2.22 94.5-24.83 97.93-27.14l0.45-1.03c-0.56-1.25-0.45-1.32-1.59-2.01-21.92 5.43-44.74 12.17-66.6 18.19z"/>
	<path class="s4" d="m339.9 645.06l0.97 0.37c0.93 1.48 0.79 0.71 0.51 2.38-2.66 2.86-78.3 22.65-87.08 25.04-0.85 0.03-0.82-0.04-1.67-0.25-0.73-1.57-0.72-0.81-0.18-2.33 3.04-2.4 24.46-7.42 29.78-8.88q28.9-7.95 57.67-16.33z"/>
	<path class="s4" d="m358.1 681.11c1.64-0.13 1.89-0.18 2.76 0.99l-0.37 1.24c-3.85 2.81-37.15 11.63-44.31 13.7-1.72 0.44-2.18-0.03-3.11-1.26l0.17-1.26c1.36-1.34 39.72-11.91 44.86-13.41z"/>
	<path class="s4" d="m251.85 599.27c1.35 0.31 2.01 0.16 2.6 1-2.49 1.02-4.17 2.39-2.83 5.22 1.94 0.84 1.2 0.64 3.61 0.14l0.42 0.34c-0.77 1.5-1.14 2.02-2.74 1.77-0.94-0.95-1.37-1.58-2.65-1.98-1.12 1.04-0.81 1.05-1.21 2.86l-1.59 0.77c-4.86-0.05-6.1-4.95-2.8-7.88 2.19-0.07 1.99 0.32 4.26 1.69l1.07-0.71c0.31-1.52 0.89-2.02 1.86-3.22z"/>
	<path class="s0" d="m245.53 603.2c0.85-0.29 1.79-0.1 2.45 0.51 0.66 0.61 0.94 1.52 0.72 2.39-0.21 0.87-0.88 1.56-1.75 1.78-1.27 0.34-2.58-0.39-2.97-1.65-0.38-1.26 0.31-2.6 1.55-3.03z"/>
	<path class="s4" d="m286.01 590.47l0.46 0.65-1.21 1.57c0.2 2.15 0.43 3.26 0.89 5.38l-0.51 0.74c-1.29-1.07-1.39-3.44-1.73-5.32-1.08-1.15-0.45-0.83-1.92-1.09l-0.49 0.71c-0.37 2.43 0.81 5.45 1.52 7.93-1.52-1.25-3.28-2.91-4.77-4.25l-0.63 0.09c0.06 1.49 0.03 2.56-0.04 4.06-2.11-1.81-2.02-5.82-2.27-8.64 1.62 1.51 2.44 2.34 4.26 3.58 0.91-4.77 2.23-4.52 6.44-5.41z"/>
	<path class="s4" d="m268.88 595.22l1.23 0.01c1.07 2.93 1.02 3.86 1.16 6.87l-1.58 0.51-0.88 0.29-0.36-1.27-0.69-0.29-0.87 1.2h-0.69l-1.29-1.39c-0.18 0.95-0.35 1.61-0.59 2.55-1.51-1.14-2.09-4.91-1.12-6.68 1.98 0.41 1.09 2.17 3.44 2.88l0.6-1c-0.34-2.52-0.65-2.65 1.64-3.68z"/>
	<path class="s5" d="m268.88 595.22l1.23 0.01c1.07 2.93 1.02 3.86 1.16 6.87l-1.58 0.51c0.63-2.2-0.2-5.25-0.81-7.39z"/>
	<path class="s4" d="m237.34 603.53c5.67 0.77 6.76 4.38 2.54 8.17-1.25 0.16-1.16 0.19-2.27-0.39-1.83-2.79-2.96-5.28-0.27-7.78z"/>
	<path class="s4" d="m326.76 578.56c3.04 0.73 4.48 3.91 4.16 6.8l-0.78 0.11-1.95-1.51c-0.2 0.97-0.33 1.59-0.64 2.53l-1.04-0.16c-1.23-1.79-1.25-3.61-1.34-5.77-0.04-0.95 0.62-1.15 1.59-2z"/>
	<path class="s4" d="m320.07 580.71c1.65 0.61 5.58 4.98 5.1 6.83-0.9-0.4-1.79-0.75-2.74-1.01-1.12 1.11-1.57 1.61-2.92 2.5-0.35-0.83 0.57-6.51 0.56-8.32z"/>
	<path class="s4" d="m270.11 595.23c2.12-1.46 0.98-1.08 3.55-1.18l0.44 0.47-1.87 2.02 0.31 0.61 1.32 0.25 0.12 0.88-1.31 1.03 0.35 1.07 3.04 0.38 0.11 0.45c-1.71 0.79-2.98 0.99-4.9 0.89-0.14-3.01-0.09-3.94-1.16-6.87z"/>
	<path class="s4" d="m259.42 597.89c3.11 1.21 3.28 5.01 1.33 7.49-1.8 0.69-0.9 0.67-2.79-0.07-1.45-1.39-1.59-2.54-2.25-4.52l0.22-1.4 0.5-0.02c1 2.19 1.68 3.35 2.95 5.4l0.94-0.34c0.58-2.63-0.09-4.05-0.9-6.54z"/>
	<path class="s4" d="m294.4 588.19c-0.49 1.47-0.64 1.51-1.89 2.43l0.17 0.78 3.48 2.1-0.89 1.97c-1.38 1.09-1.82 1.91-3.32 0.84l0.1-1.03 1.82-0.32 0.41-0.7c-1.57-1.09-3.9-2.22-4.46-3.79l0.38-0.78c1.6-1.11 2.23-1.09 4.2-1.5z"/>
	<path class="s4" d="m296.28 588.27c1.6 1.56 0.47 3.43 2.58 5.5l1.02-0.05c0.98-2.29-0.59-5.45 0.43-6.19 1.6 2.28 2.27 4.87 0.3 7.21-2.28 0.63-2.68 0-4.15-1.69-0.29-2.2-0.37-2.61-0.18-4.78z"/>
	<path class="s3" d="m412.27 646.76q0.93-0.89 1.9-1.73c7.51-6.58 20.24-1.35 29.26 0.55q7.26 1.56 14.68 2.05c3.65 0.63 6.09 0.52 9.79 0.49 9.3 15.84 18.09 31.59 26.31 48.01 1.28 2.57 2.93 5.28 4.37 7.79-42.31 49.93-51.79 118.01-14.45 174.23 6.03 9.09 12.72 16.21 20.14 24.15-58.64-0.15-118.82-14.84-167.34-48.63-21.8-15.18-46.08-37.11-57.8-61.29 8.22-2.92 22.6-6.46 31.55-8.95l65.6-17.73c13.62-3.58 28.17-6.64 41.07-12.13 10.17-4.33 16.31-14.68 15.37-25.69-0.94-11.12-4.4-21.83-7.35-32.58-4.44-16.19-8.96-32.27-13.1-48.54z"/>
	<path class="s2" d="m265.87 800.02c2.45 2.4 6.38 9.16 8.39 12.3 33.66 52.53 97.69 84.5 156.7 97.55q0.23 3.28 0.32 6.56c0.17 8.82-2.12 25.58-8.83 31.24-12.11 10.22-54.97 10.23-70.33 10.34-4.97 0.11-31.03 1.04-34.03-1.03-2.62-6.97 13.7-16.29 13.35-23.54-7.19-12.81-25.82 18.2-28.65 23.16-4.68 0-18.75-0.83-20.59-3.36-6-8.25 26.32-33.93 30.35-37.11 15.28-11.5 3.52-17.16-6.75-25.09-22.35-17.26-45.53-62.31-39.93-91.02z"/>
	<path class="s6" d="m400.32 655.38l0.8 0.22c0.29 0.46 0.74 1.13 0.89 1.65 5.18 17.99 9.76 36.11 15 54.09 4.13 14.16 8.89 27.15-9.65 32.57-10.32 3.02-20.98 6.07-31.43 8.98l-66.42 18.07-38.46 10.35c-4.78 1.26-15.46 4.31-20.04 4.89-2.74 0.36-5.53-0.18-7.95-1.52-6.87-3.79-9.95-20.66-12.16-28.26q-7.95-27.71-15.52-55.52l-2.33-9.72c4.74-3.62 6-5.49 10.13-9.48 4.12 11.74 21.14 81.84 25.19 86 1.32 1.35 3.94 2.05 5.78 2.12 5.42 0.19 17.37-4.34 23.22-5.93l56.43-15.34c20.33-5.49 40.72-10.74 61.03-16.33 5.98-1.64 11.36-4.15 10.23-11.64-1.2-7.94-3.93-16.12-6.15-23.89q-5.62-19.08-10.41-38.37c4.15-0.78 7.77-1.82 11.82-2.94z"/>
	<path class="s5" d="m252.44 510.24c-0.6-3.7-0.42-6.62 2.13-9.63 1.83-2.12 4.42-3.43 7.21-3.65 3.85-0.32 6.2 0.99 8.96 3.43 1.2 3.09 1.76 5.2 3.96 7.7 11.04-3.37 17.97 1.2 28.06 6.64q0.98 0.53 1.95 1.08c2.87 6.39 4.47 11.66 6.34 18.43-24.33 7.45-51.12 14.57-75.81 21.1-1.61-5.38-9.86-34.33-1.69-35.33 7.35-0.91 14.9-0.33 23-2.58-0.17-4.67-1.58-3.4-4.11-7.19z"/>
	<path class="s6" d="m252.44 510.24c-0.6-3.7-0.42-6.62 2.13-9.63 1.83-2.12 4.42-3.43 7.21-3.65 3.85-0.32 6.2 0.99 8.96 3.43 1.2 3.09 1.76 5.2 3.96 7.7-5.86 3.82-11.43 7.28-18.15 9.34-0.17-4.67-1.58-3.4-4.11-7.19z"/>
	<path class="s5" d="m252.44 510.24c-0.6-3.7-0.42-6.62 2.13-9.63 1.83-2.12 4.42-3.43 7.21-3.65 3.85-0.32 6.2 0.99 8.96 3.43-5.87 5.66-10.51 7.4-18.3 9.85z"/>
	<path class="s2" d="m184.69 619.24c14.84 3.08 22.96 14.17 27.16 27.94-5.03-1.23-22.02-7.29-21.36 2 0.79 11.15 18.14 7.39 23.13 11.7 0.58 1.49 0.04 2.49-0.44 4.07-11.71 30.55-36.77 5.86-38.82-14.25-1.2-11.77 2.87-22.44 10.33-31.46z"/>
	<path class="s6" d="m347.05 503.9c16.75-1.74 17.48 14.46 21.02 26.81l11.62 40.59c-4.94 1.88-8.56 4.02-12.94 6.91l-5.11-18.23c-2.89-11.42-5.79-23.72-9.59-34.78-4.08-11.91-23.36-3.53-32.11-1.12-1.83-3.93-2.9-8.18-3.84-12.41 8.94-2.74 22.01-6.28 30.95-7.77z"/>
	<path class="s6" d="m217.94 539.89c1.24-0.12 0.64-0.22 1.79 0.34 1.11 2.53 2.12 8.53 2.81 11.56-26.25 8.54-33.62 1.13-24.8 32.93q3.77 13.77 7.87 27.44c-2.32-1.04-4.86-2-7.23-2.95-2.38-0.81-5.19-1.53-7.64-2.22-3.68-14.35-8.91-28.58-12.36-43.01-1.64-6.88 2.43-12.98 8.85-15.36 9.83-3.64 20.53-6.04 30.71-8.73z"/>
	<path class="s0" d="m201.64 382.56c6.68 0.6 14.43 0.78 21.2 1.09-1.14 4.13-2.14 6.6-4.13 10.35-8.86 10.4-14.82-4.05-17.07-11.44z"/>
	<path class="s0" d="m278.95 382.35c2.95-0.26 6.26-0.37 9.26-0.54-1.26 5.92-3.3 15.87-11.28 14.75-5.41-3.06-7.45-7.88-9.41-13.37 3.79-0.32 7.63-0.56 11.43-0.84z"/>
	<path class="s0" d="m351.11 366.03c0.51 0.23 0.16 0.04 0.87 0.81 0.71 8.31-1.78 22.67-12.9 14.42-2.84-2.82-3.89-4.83-5.62-8.29 6.37-2.3 11.39-4.29 17.65-6.94z"/>
	<path class="s0" d="m144.54 371.3l17.99 4.68c-1.18 3.93-2.09 5.66-4.43 8.87-10.53 10.66-12.56-6.29-13.56-13.55z"/>
	<path class="s0" d="m295.41 496.44c4.96 0.34 10.05 7.82 8.01 10.66l-1.54-0.36c-3.45-1.56-10.1-2.55-10.25-6.63 1.07-2.01 1.84-2.3 3.78-3.67z"/>
	<path id="Shape 1" fill-rule="evenodd" class="s0" d="m337.83 563.36l8.81 34.9-112.47 28.38-8.81-34.9z"/>
	<text id="" transform="translate(251,644)">
	</text>
</svg>