<svg xmlns="http://www.w3.org/2000/svg" viewBox="0 0 420 560" role="img" aria-label="Event ticket with QR" text-rendering="geometricPrecision" shape-rendering="crispEdges">
  <defs><clipPath id="paper"><rect x="30" y="40" width="360" height="480" rx="10"/></clipPath></defs>
  <rect width="420" height="560" fill="#e2e8f0"/>
  <g clip-path="url(#paper)">
  <rect x="30" y="40" width="360" height="480" fill="#ffffff"/>

  <!-- Top band -->
  <rect x="30" y="40" width="360" height="80" fill="#0f172a"/>
  <text x="50" y="74" font-family="Inter, Arial, sans-serif" font-size="9" font-weight="700" fill="#94a3b8" letter-spacing="2" shape-rendering="geometricPrecision">EVENT TICKET</text>
  <text x="50" y="100" font-family="Inter, Arial, sans-serif" font-size="20" font-weight="700" fill="#ffffff" shape-rendering="geometricPrecision">Qorstack DevConf</text>

  <!-- Perforation -->
  <g fill="#cbd5e1">
    <rect x="36" y="180" width="6" height="2"/>
    <rect x="50" y="180" width="6" height="2"/>
    <rect x="64" y="180" width="6" height="2"/>
    <rect x="78" y="180" width="6" height="2"/>
    <rect x="92" y="180" width="6" height="2"/>
    <rect x="106" y="180" width="6" height="2"/>
    <rect x="120" y="180" width="6" height="2"/>
    <rect x="134" y="180" width="6" height="2"/>
    <rect x="148" y="180" width="6" height="2"/>
    <rect x="162" y="180" width="6" height="2"/>
    <rect x="176" y="180" width="6" height="2"/>
    <rect x="190" y="180" width="6" height="2"/>
    <rect x="204" y="180" width="6" height="2"/>
    <rect x="218" y="180" width="6" height="2"/>
    <rect x="232" y="180" width="6" height="2"/>
    <rect x="246" y="180" width="6" height="2"/>
    <rect x="260" y="180" width="6" height="2"/>
    <rect x="274" y="180" width="6" height="2"/>
    <rect x="288" y="180" width="6" height="2"/>
    <rect x="302" y="180" width="6" height="2"/>
    <rect x="316" y="180" width="6" height="2"/>
    <rect x="330" y="180" width="6" height="2"/>
    <rect x="344" y="180" width="6" height="2"/>
    <rect x="358" y="180" width="6" height="2"/>
    <rect x="372" y="180" width="6" height="2"/>
  </g>

  <!-- Ticket info -->
  <text x="50" y="148" font-family="Inter, Arial, sans-serif" font-size="9" font-weight="700" fill="#94a3b8" letter-spacing="1" shape-rendering="geometricPrecision">ATTENDEE</text>
  <text x="50" y="168" font-family="Inter, Arial, sans-serif" font-size="14" font-weight="700" fill="#0f172a" shape-rendering="geometricPrecision">John Doe</text>

  <text x="220" y="148" font-family="Inter, Arial, sans-serif" font-size="9" font-weight="700" fill="#94a3b8" letter-spacing="1" shape-rendering="geometricPrecision">SEAT</text>
  <text x="220" y="168" font-family="Inter, Arial, sans-serif" font-size="14" font-weight="700" fill="#0f172a" shape-rendering="geometricPrecision">A-42</text>

  <text x="50" y="218" font-family="Inter, Arial, sans-serif" font-size="9" font-weight="700" fill="#94a3b8" letter-spacing="1" shape-rendering="geometricPrecision">DATE</text>
  <text x="50" y="238" font-family="Inter, Arial, sans-serif" font-size="13" font-weight="700" fill="#0f172a" shape-rendering="geometricPrecision">Sat, 18 Apr 2026</text>

  <text x="50" y="270" font-family="Inter, Arial, sans-serif" font-size="9" font-weight="700" fill="#94a3b8" letter-spacing="1" shape-rendering="geometricPrecision">VENUE</text>
  <text x="50" y="290" font-family="Inter, Arial, sans-serif" font-size="13" font-weight="700" fill="#0f172a" shape-rendering="geometricPrecision">BITEC Bangna · Hall 4</text>

  <!-- QR -->
  <rect x="130" y="322" width="160" height="160" fill="#ffffff" stroke="#0f172a" stroke-width="2"/>
  <g fill="#0f172a">
    <rect x="138" y="330" width="36" height="36"/>
    <rect x="146" y="338" width="20" height="20" fill="#ffffff"/>
    <rect x="150" y="342" width="12" height="12"/>

    <rect x="246" y="330" width="36" height="36"/>
    <rect x="254" y="338" width="20" height="20" fill="#ffffff"/>
    <rect x="258" y="342" width="12" height="12"/>

    <rect x="138" y="438" width="36" height="36"/>
    <rect x="146" y="446" width="20" height="20" fill="#ffffff"/>
    <rect x="150" y="450" width="12" height="12"/>

    <rect x="180" y="330" width="6" height="6"/>
    <rect x="192" y="330" width="6" height="6"/>
    <rect x="204" y="330" width="6" height="6"/>
    <rect x="222" y="330" width="6" height="6"/>

    <rect x="186" y="342" width="6" height="6"/>
    <rect x="198" y="342" width="6" height="6"/>
    <rect x="216" y="342" width="6" height="6"/>
    <rect x="228" y="342" width="6" height="6"/>

    <rect x="180" y="354" width="6" height="6"/>
    <rect x="204" y="354" width="6" height="6"/>
    <rect x="216" y="354" width="6" height="6"/>
    <rect x="234" y="354" width="6" height="6"/>

    <rect x="180" y="372" width="6" height="6"/>
    <rect x="192" y="372" width="6" height="6"/>
    <rect x="210" y="372" width="6" height="6"/>
    <rect x="234" y="372" width="6" height="6"/>
    <rect x="246" y="372" width="6" height="6"/>
    <rect x="258" y="372" width="6" height="6"/>
    <rect x="270" y="372" width="6" height="6"/>

    <rect x="186" y="384" width="6" height="6"/>
    <rect x="198" y="384" width="6" height="6"/>
    <rect x="222" y="384" width="6" height="6"/>
    <rect x="240" y="384" width="6" height="6"/>
    <rect x="264" y="384" width="6" height="6"/>

    <rect x="180" y="396" width="6" height="6"/>
    <rect x="204" y="396" width="6" height="6"/>
    <rect x="222" y="396" width="6" height="6"/>
    <rect x="234" y="396" width="6" height="6"/>
    <rect x="252" y="396" width="6" height="6"/>
    <rect x="270" y="396" width="6" height="6"/>

    <rect x="192" y="408" width="6" height="6"/>
    <rect x="216" y="408" width="6" height="6"/>
    <rect x="228" y="408" width="6" height="6"/>
    <rect x="246" y="408" width="6" height="6"/>
    <rect x="264" y="408" width="6" height="6"/>

    <rect x="180" y="420" width="6" height="6"/>
    <rect x="198" y="420" width="6" height="6"/>
    <rect x="210" y="420" width="6" height="6"/>
    <rect x="234" y="420" width="6" height="6"/>
    <rect x="252" y="420" width="6" height="6"/>
    <rect x="270" y="420" width="6" height="6"/>

    <rect x="186" y="438" width="6" height="6"/>
    <rect x="198" y="438" width="6" height="6"/>
    <rect x="216" y="438" width="6" height="6"/>
    <rect x="240" y="438" width="6" height="6"/>
    <rect x="258" y="438" width="6" height="6"/>
    <rect x="270" y="438" width="6" height="6"/>

    <rect x="180" y="450" width="6" height="6"/>
    <rect x="192" y="450" width="6" height="6"/>
    <rect x="210" y="450" width="6" height="6"/>
    <rect x="228" y="450" width="6" height="6"/>
    <rect x="246" y="450" width="6" height="6"/>
    <rect x="264" y="450" width="6" height="6"/>

    <rect x="186" y="462" width="6" height="6"/>
    <rect x="204" y="462" width="6" height="6"/>
    <rect x="222" y="462" width="6" height="6"/>
    <rect x="240" y="462" width="6" height="6"/>
    <rect x="252" y="462" width="6" height="6"/>

    <rect x="180" y="474" width="6" height="6"/>
    <rect x="198" y="474" width="6" height="6"/>
    <rect x="216" y="474" width="6" height="6"/>
    <rect x="234" y="474" width="6" height="6"/>
    <rect x="258" y="474" width="6" height="6"/>
    <rect x="270" y="474" width="6" height="6"/>
  </g>

  <!-- Ticket code -->
  <text x="210" y="502" text-anchor="middle" font-family="Inter, Arial, sans-serif" font-size="11" font-weight="700" fill="#0f172a" letter-spacing="2" shape-rendering="geometricPrecision">TIX-DEV-26-A42</text>
  </g>
  <rect x="30" y="40" width="360" height="480" rx="10" fill="none" stroke="#cbd5e1"/>
</svg>
