<svg xmlns="http://www.w3.org/2000/svg" viewBox="0 0 420 560" role="img" aria-label="Shipping label PDF" text-rendering="geometricPrecision" shape-rendering="crispEdges">
  <defs><clipPath id="paper"><rect x="20" y="60" width="380" height="420" rx="10"/></clipPath></defs>
  <rect width="420" height="560" fill="#e2e8f0"/>
  <g clip-path="url(#paper)">
  <rect x="20" y="60" width="380" height="420" fill="#ffffff"/>

  <!-- Header band -->
  <rect x="20" y="60" width="380" height="44" fill="#0f172a"/>
  <text x="40" y="88" font-family="Inter, Arial, sans-serif" font-size="14" font-weight="700" fill="#ffffff" letter-spacing="2" shape-rendering="geometricPrecision">SHIPPING LABEL</text>
  <text x="380" y="88" text-anchor="end" font-family="Inter, Arial, sans-serif" font-size="11" font-weight="700" fill="#94a3b8" shape-rendering="geometricPrecision">EXPRESS</text>

  <!-- FROM -->
  <text x="40" y="132" font-family="Inter, Arial, sans-serif" font-size="9" font-weight="700" fill="#94a3b8" letter-spacing="1" shape-rendering="geometricPrecision">FROM</text>
  <text x="40" y="152" font-family="Inter, Arial, sans-serif" font-size="12" font-weight="700" fill="#0f172a" shape-rendering="geometricPrecision">Qorstack Warehouse</text>
  <text x="40" y="168" font-family="Inter, Arial, sans-serif" font-size="10" fill="#475569" shape-rendering="geometricPrecision">142/8 Sukhumvit Rd</text>
  <text x="40" y="182" font-family="Inter, Arial, sans-serif" font-size="10" fill="#475569" shape-rendering="geometricPrecision">Bangkok 10110</text>

  <!-- Divider -->
  <rect x="40" y="200" width="340" height="1" fill="#cbd5e1"/>

  <!-- TO -->
  <text x="40" y="224" font-family="Inter, Arial, sans-serif" font-size="9" font-weight="700" fill="#94a3b8" letter-spacing="1" shape-rendering="geometricPrecision">SHIP TO</text>
  <text x="40" y="248" font-family="Inter, Arial, sans-serif" font-size="16" font-weight="700" fill="#0f172a" shape-rendering="geometricPrecision">John Doe</text>
  <text x="40" y="268" font-family="Inter, Arial, sans-serif" font-size="12" fill="#0f172a" shape-rendering="geometricPrecision">Acme Co., Ltd.</text>
  <text x="40" y="284" font-family="Inter, Arial, sans-serif" font-size="11" fill="#475569" shape-rendering="geometricPrecision">88 Silom Road, Bang Rak</text>
  <text x="40" y="298" font-family="Inter, Arial, sans-serif" font-size="11" fill="#475569" shape-rendering="geometricPrecision">Bangkok 10500, Thailand</text>

  <!-- Barcode block -->
  <rect x="40" y="324" width="340" height="100" fill="#ffffff" stroke="#cbd5e1"/>
  <g fill="#0f172a">
    <rect x="56" y="338" width="2" height="60"/>
    <rect x="60" y="338" width="4" height="60"/>
    <rect x="66" y="338" width="2" height="60"/>
    <rect x="72" y="338" width="6" height="60"/>
    <rect x="82" y="338" width="2" height="60"/>
    <rect x="88" y="338" width="3" height="60"/>
    <rect x="93" y="338" width="2" height="60"/>
    <rect x="98" y="338" width="5" height="60"/>
    <rect x="106" y="338" width="2" height="60"/>
    <rect x="112" y="338" width="4" height="60"/>
    <rect x="119" y="338" width="3" height="60"/>
    <rect x="126" y="338" width="2" height="60"/>
    <rect x="131" y="338" width="6" height="60"/>
    <rect x="140" y="338" width="2" height="60"/>
    <rect x="145" y="338" width="3" height="60"/>
    <rect x="151" y="338" width="5" height="60"/>
    <rect x="159" y="338" width="2" height="60"/>
    <rect x="164" y="338" width="4" height="60"/>
    <rect x="171" y="338" width="2" height="60"/>
    <rect x="176" y="338" width="3" height="60"/>
    <rect x="182" y="338" width="6" height="60"/>
    <rect x="191" y="338" width="2" height="60"/>
    <rect x="196" y="338" width="4" height="60"/>
    <rect x="203" y="338" width="2" height="60"/>
    <rect x="208" y="338" width="3" height="60"/>
    <rect x="214" y="338" width="5" height="60"/>
    <rect x="222" y="338" width="2" height="60"/>
    <rect x="227" y="338" width="6" height="60"/>
    <rect x="236" y="338" width="2" height="60"/>
    <rect x="241" y="338" width="3" height="60"/>
    <rect x="247" y="338" width="4" height="60"/>
    <rect x="254" y="338" width="2" height="60"/>
    <rect x="260" y="338" width="5" height="60"/>
    <rect x="268" y="338" width="2" height="60"/>
    <rect x="273" y="338" width="6" height="60"/>
    <rect x="282" y="338" width="3" height="60"/>
    <rect x="288" y="338" width="2" height="60"/>
    <rect x="293" y="338" width="4" height="60"/>
    <rect x="300" y="338" width="2" height="60"/>
    <rect x="306" y="338" width="3" height="60"/>
    <rect x="312" y="338" width="5" height="60"/>
    <rect x="320" y="338" width="2" height="60"/>
    <rect x="325" y="338" width="6" height="60"/>
    <rect x="334" y="338" width="2" height="60"/>
    <rect x="339" y="338" width="4" height="60"/>
    <rect x="346" y="338" width="2" height="60"/>
    <rect x="352" y="338" width="3" height="60"/>
    <rect x="358" y="338" width="2" height="60"/>
    <rect x="363" y="338" width="5" height="60"/>
  </g>
  <text x="210" y="416" text-anchor="middle" font-family="Inter, Arial, sans-serif" font-size="11" font-weight="700" fill="#0f172a" letter-spacing="2" shape-rendering="geometricPrecision">TH-2026-001</text>

  <!-- Footer -->
  <text x="40" y="456" font-family="Inter, Arial, sans-serif" font-size="9" font-weight="700" fill="#94a3b8" letter-spacing="1" shape-rendering="geometricPrecision">FORMAT</text>
  <text x="40" y="470" font-family="Inter, Arial, sans-serif" font-size="11" font-weight="700" fill="#0f172a" shape-rendering="geometricPrecision">Code 128</text>

  <text x="200" y="456" font-family="Inter, Arial, sans-serif" font-size="9" font-weight="700" fill="#94a3b8" letter-spacing="1" shape-rendering="geometricPrecision">WEIGHT</text>
  <text x="200" y="470" font-family="Inter, Arial, sans-serif" font-size="11" font-weight="700" fill="#0f172a" shape-rendering="geometricPrecision">1.8 kg</text>
  </g>
  <rect x="20" y="60" width="380" height="420" rx="10" fill="none" stroke="#0f172a" stroke-width="2"/>
</svg>
