<svg xmlns="http://www.w3.org/2000/svg" width="900" height="420" viewBox="0 0 900 420" role="img" aria-label="Generated PDF and Excel output preview">
  <rect width="900" height="420" fill="#0b0f17"/>
  <rect x="58" y="34" width="330" height="352" rx="12" fill="#ffffff"/>
  <text x="90" y="82" font-family="Arial, sans-serif" font-size="26" font-weight="700" fill="#0f172a">Invoice</text>
  <text x="90" y="112" font-family="Consolas, monospace" font-size="13" fill="#2563eb">{{customer_name}}</text>
  <rect x="90" y="145" width="250" height="34" fill="#e2e8f0"/>
  <rect x="90" y="179" width="250" height="112" fill="#ffffff" stroke="#cbd5e1"/>
  <path d="M170 145v146M250 145v146M90 213h250M90 249h250" stroke="#cbd5e1"/>
  <text x="104" y="166" font-family="Arial, sans-serif" font-size="12" font-weight="700" fill="#334155">Item</text>
  <text x="184" y="166" font-family="Arial, sans-serif" font-size="12" font-weight="700" fill="#334155">Qty</text>
  <text x="266" y="166" font-family="Arial, sans-serif" font-size="12" font-weight="700" fill="#334155">Total</text>
  <text x="104" y="201" font-family="Arial, sans-serif" font-size="12" fill="#0f172a">Design</text>
  <text x="190" y="201" font-family="Arial, sans-serif" font-size="12" fill="#0f172a">2</text>
  <text x="266" y="201" font-family="Arial, sans-serif" font-size="12" fill="#0f172a">2400</text>
  <rect x="90" y="318" width="126" height="26" rx="6" fill="#eff6ff" stroke="#bfdbfe"/>
  <text x="105" y="336" font-family="Arial, sans-serif" font-size="12" fill="#1d4ed8">QR payment</text>
  <rect x="512" y="54" width="320" height="224" rx="12" fill="#f8fafc" stroke="#334155"/>
  <text x="544" y="92" font-family="Arial, sans-serif" font-size="22" font-weight="700" fill="#0f172a">Excel Report</text>
  <rect x="544" y="120" width="246" height="112" fill="#ffffff" stroke="#cbd5e1"/>
  <path d="M544 148h246M544 176h246M544 204h246M626 120v112M708 120v112" stroke="#cbd5e1"/>
  <text x="562" y="139" font-family="Arial, sans-serif" font-size="11" font-weight="700" fill="#334155">Region</text>
  <text x="646" y="139" font-family="Arial, sans-serif" font-size="11" font-weight="700" fill="#334155">Sales</text>
  <text x="728" y="139" font-family="Arial, sans-serif" font-size="11" font-weight="700" fill="#334155">Total</text>
  <rect x="512" y="300" width="320" height="66" rx="10" fill="#111827" stroke="#334155"/>
  <text x="538" y="326" font-family="Consolas, monospace" font-size="13" fill="#93c5fd">pdfPassword</text>
  <text x="660" y="326" font-family="Consolas, monospace" font-size="13" fill="#86efac">watermark</text>
  <text x="538" y="348" font-family="Consolas, monospace" font-size="13" fill="#facc15">zipOutput</text>
</svg>
